<?xml version="1.0"?><svg width="640" height="480" xmlns="http://www.w3.org/2000/svg">
 <title>Michigan Map, thick outline</title>
 <g>
  <title>Layer 1</title>
  <path stroke-width="5" stroke="#000000" d="m0.248,47.778999c2.889,-2.612 6.622,-3.117001 11.488,-3.895c4.867001,-0.778 6.423,-2.917999 8.372,-4.867001c1.948,-1.947998 6.425001,-6.230999 11.098,-4.479c4.673002,1.752003 10.320002,-0.389999 12.072001,-1.751999c1.751999,-1.362 4.670002,-1.751999 6.035,-4.088999c1.365002,-2.336 2.139999,-2.339001 4.673,-2.143s4.673,-1.752001 5.063,-3.504002c0.389999,-1.751999 1.751999,-3.695999 3.505001,-4.476999c1.751999,-0.781 2.922997,-1.752001 3.894997,-3.311c0.972,-1.558 2.725006,-1.949 3.699005,-2.143s2.532997,-1.166 5.062996,-3.892c2.529999,-2.727 4.085999,-5.061 7.203003,-5.257s3.308998,-0.78 4.672997,-1.948c1.365005,-1.168 4.869003,-2.336 9.736,-1.946c4.867004,0.39 2.334,0.002 4.867004,0.39c2.531998,0.388 2.337997,3.112 -0.388,3.308c-2.727005,0.196 -2.919998,0.778 -5.063004,0.584c0.194,1.558 -0.584,2.336 -2.335999,3.504c-1.751999,1.168 -3.698997,2.14 -4.866997,3.505c-1.168007,1.364 -0.780006,1.948 -2.143005,2.142c-1.362,0.194 -2.142998,0.778 -2.335999,2.531001c-0.194,1.751999 -0.389999,0.971998 -1.167999,1.751999c-0.778,0.781 -0.388,0.778 -0.778,2.336c-0.389999,1.559 -0.778,0.195999 -1.751999,0.975c-0.973999,0.778 -0.779999,2.917999 -0.973999,3.698s-0.778,0.976999 -2.529999,1.365c-0.390007,2.529999 -0.780006,3.698 -1.364006,4.867001c-0.584,1.167999 -0.974998,2.334 -0.584,4.283001c0.389999,1.947998 0.195999,1.751999 -0.194,2.726997s0.388,1.945999 1.362,0.778c0.974007,-1.167999 0.584,-2.529999 1.752007,-3.697998c1.167999,-1.167999 3.116997,-2.141003 3.894997,-3.699001c0.778,-1.559 2.723999,-1.364 3.698997,-2.726999c0.973999,-1.362001 3.701004,-0.778 1.557999,0.584c-2.141998,1.362 -1.945999,1.75 -2.919998,1.945999s-0.388,0.584002 -0.778,1.752001c-0.389999,1.167999 -1.364998,0.778 -0.389999,1.167999c0.973999,0.389999 0.779999,0.389999 1.557999,-0.194c0.778,-0.584 0.388,0.195999 0.778,-1.362c0.389999,-1.557999 0.194,-1.556 1.751999,-1.751999c1.559006,-0.196001 3.895004,-0.388 6.425003,0c2.529999,0.387999 1.556,0.581999 2.529999,0.387999c0.974998,-0.193998 0.972,0.586 0,1.948999c-0.972,1.362 -0.973999,2.727001 0,1.752003c0.974998,-0.974003 1.167999,0 1.559006,-1.558002c0.389999,-1.558998 -0.388,-1.364998 0.389999,-1.558998c0.778,-0.194 0.581993,-0.196001 0.972,1.167999c0.390999,1.363998 1.167999,1.754002 1.167999,0.779999s-1.157005,-1.879999 -0.388,-1.751999c2.335999,0.388 3.501999,-0.778 3.891998,1.167999c0.390999,1.945999 0.778,2.917999 2.920998,2.723999s2.139999,0.393002 2.335999,2.533001s0.586006,1.167999 1.948006,2.336002c1.362,1.167999 1.360001,0.584 1.556,1.945999s-0.779999,1.75 0.584,1.945999c1.364998,0.195999 1.948997,0.585999 2.726997,1.948002c0.778,1.362 1.751999,1.167999 1.751999,4.088997s3.311005,2.528 4.089005,2.725002c0.778,0.195999 3.113998,0.391998 4.282997,-0.388c1.167999,-0.779999 2.532997,0 4.284996,-1.557999c1.751999,-1.559002 3.891998,-1.752003 3.697998,0.584s2.139999,1.947998 3.115005,2.142998c0.973999,0.194 1.363998,0.389999 2.141998,0c0.778,-0.389999 -0.001999,-0.001999 0.778,-1.364998c0.779999,-1.362 0.779999,-1.946003 1.949005,-0.778c1.167999,1.167999 0.972,1.167999 2.139999,1.751999c1.167999,0.584 1.947998,1.945999 2.533005,1.362c0.584,-0.584 0.972,-0.972 1.556,-2.529999c0.584,-1.558002 1.556,-2.530003 2.92099,-2.920002c1.363998,-0.389999 1.363998,-2.529999 2.727005,-2.529999c1.362,0 2.143005,-0.584 2.143005,-0.584s0.074997,-0.549999 1.751999,-1.558002c0.972,-0.584 2.334,-1.556 3.30899,-1.945999s1.363998,-0.779999 1.363998,-1.558998c0,-0.778 1.556,-1.362 2.725006,-1.167999c1.167999,0.194 4.617996,-0.094002 6.972,-0.714001c2.354996,-0.621002 8.798996,-0.372002 10.660004,-0.372002c1.862,0 7.807999,0 11.778,-2.853001c3.970001,-2.851997 6.078003,-2.974998 8.556,-2.974998c2.478989,0 2.481995,0.494999 3.597,-0.249001c1.112991,-0.743999 3.097992,-1.484999 1.610001,1.985001c-1.487,3.471001 -1.113007,9.421001 -0.990005,11.280998c0.123001,1.859001 1.487,1.859001 1.733994,2.108002c0.246002,0.249001 5.585007,0.369999 6.201004,0.124001c0.615997,-0.247002 -0.003998,0.994999 0.615997,1.241001c0.621002,0.245998 1.615005,0 3.227005,-0.744003c1.610001,-0.743999 2.600998,-2.602997 3.964996,-2.48c1.365005,0.123001 2.359009,0.995003 2.359009,2.729c0,1.734001 1.237,1.98 3.098999,0.246002c1.862,-1.734001 1.240997,-0.865002 2.108002,-0.990002s0,-0.867001 0.621002,-1.736c0.619995,-0.868999 1.609985,-0.618 2.230988,-0.743999c0.62001,-0.125 0.246002,-0.374001 0.743011,-1.241001c0.498001,-0.867001 0.625,-0.249001 1.117996,0s0.615997,0.868999 1.235992,1.613003c0.621002,0.743999 0.867004,1.484997 1.365005,2.354c0.496994,0.869999 1.363998,2.726997 1.983994,3.718998c0.621002,0.993 0.493011,1.485001 0.37001,2.230999s1.246002,1.367001 1.61499,0.125s0.985001,-0.622997 -0.127991,-1.985001c-1.113007,-1.362 -1.359009,-1.859997 -1.85701,-2.726997c-0.496994,-0.867001 -0.870987,-1.487999 -0.993988,-2.232002c-0.124008,-0.743999 0,-0.245998 -0.867004,-1.115997c-0.867004,-0.868999 -1.360001,-0.743999 -1.113007,-1.736c0.246002,-0.992001 0.871002,-0.370003 1.363998,-1.239002c0.492004,-0.868999 0.743011,-1.487999 2.478012,-0.743999c1.733994,0.743999 3.837997,0.369999 2.477997,2.478001c-1.359009,2.108002 -2.600998,3.349998 -1.113007,4.959999c1.488007,1.611 2.359009,3.594002 1.985001,4.463001c-0.373993,0.869999 0.123001,1.860001 0.37001,2.48c0.245987,0.620998 0.126999,1.612999 -1.734009,1.736c-1.862,0.123001 -3.847,2.108002 -1.862,2.603001c1.985001,0.494999 1.488007,0.498001 2.852997,0.371998s1.487,1.859001 2.231003,1.859001s4.576996,-0.517998 1.487,1.115997c-2.108002,1.116005 1.985001,3.347 2.729004,3.719002c0.742996,0.372002 0.373993,0.867004 1.363998,1.238998c0.990005,0.372002 1.363998,-0.371994 2.108002,0.249001c0.742996,0.621002 0.994003,1.611 0,2.231003c-0.994995,0.621002 0.246002,0.621002 -1.240997,0.249001c-1.488007,-0.372002 -1.615997,-2.108002 -2.231003,-0.372002c-0.615997,1.736 -1.240997,1.363998 -2.231003,0.249001s-1.487991,-1.362 -3.222,-0.123001c-1.733994,1.238998 -2.358994,0.493004 -4.093994,-0.125c-1.734009,-0.618996 -2.231003,-0.249001 -3.098999,0.372002s-1.985001,0.498001 -1.487,1.240997c0.496994,0.744003 1.860992,1.734001 0.619995,1.611c-1.240997,-0.123001 -2.729004,0 -2.231003,-1.115997c0.498001,-1.115997 1.862,-0.869003 0.744003,-2.108002c-1.117996,-1.238998 -1.862,-0.372002 -2.604996,0c-0.744003,0.372002 -2.725006,1.116005 -2.725006,-0.372002s-0.501999,-0.866997 -1.615005,-0.866997s-2.60199,1.113998 -2.60199,0.124001s0.246994,-1.860001 -0.743011,-0.744003s-1.112991,0.619003 -0.98999,2.231003c0.123001,1.612999 -1.369003,1.736 -0.994995,3.473s0.496994,1.240997 0.373993,2.851997s-0.123001,1.487999 0.744003,1.487999s-0.123001,1.859001 -0.867004,1.611c0,0 -2.729004,-0.001999 -3.227005,-0.992996c-0.496994,-0.989998 -1.983994,-2.106003 -2.108002,-2.477997c-0.122986,-0.372002 -0.250992,-0.495003 -1.363998,-0.744003c-1.112991,-0.249001 -1.117996,-0.497002 -1.610001,-1.240997c-0.492996,-0.744003 0.128006,-0.741005 -0.98999,-0.990005c-1.117996,-0.249001 -1.606003,-0.123001 -0.990005,-0.991997c0.615997,-0.870003 0.497009,-0.619003 1.487,-0.372002s3.098999,-0.247002 0.867004,-1.115997s-2.359009,0.372002 -3.847,-0.249001c-1.488007,-0.621002 -2.606003,-0.124001 -3.843002,-0.867004s-1.363998,-1.363998 -3.718994,-0.992996c-2.354004,0.372002 -3.723999,-0.497002 -4.960999,-1.363998c-1.236008,-0.867004 -4.335007,0 -5.453003,0.249001c-1.117004,0.249001 -2.605011,-0.370003 -4.093002,1.985001c-1.488007,2.353996 -2.848007,5.578995 -6.817001,5.206993c-3.970993,-0.371994 -3.227005,-0.494995 -5.089005,0.993004c-1.860992,1.487 -4.466995,1.489998 -3.472992,-0.124001c0.994995,-1.612999 0.994995,-2.231003 -1.113007,-1.736s-0.619995,1.240997 -3.100998,1.364998c-2.479996,0.123001 -1.613007,0.618004 -2.729004,0.990005c-1.115997,0.371994 -0.990997,0.001999 -1.983002,-0.247002c-0.991989,-0.249001 -0.620987,-0.123001 -1.115997,0.743996c-0.494995,0.867004 -0.991989,0.493004 -2.108002,0.990005c-1.115997,0.498001 -1.612991,1.612999 -1.735992,3.100998c-0.124008,1.487999 -0.247009,5.205002 -2.477997,5.330002s0,1.715996 -3.719009,2.108002c-2.356995,0.248993 -1.610992,1.117996 -1.487,1.240997c0.123001,0.124001 -0.127991,0.989998 -0.746994,0.989998c-0.617996,0 -1.363998,0.746002 -1.115997,1.612999c0.248993,0.867004 -0.246002,1.487999 -0.990005,1.611c-0.744003,0.123001 -0.744003,0.990005 -0.621002,1.983002c0.124008,0.991997 0.621002,1.240997 -1.238998,-0.123001c-1.858994,-1.364998 -2.852005,-3.100998 -0.992996,-2.852997c1.860001,0.249001 1.238998,-0.493004 1.238998,-1.362c0,-0.870003 1.102005,-1.246002 0.992004,-2.231003c-0.249008,-2.234001 3.718994,-0.375 2.479996,-2.357002c-0.912994,-1.459999 0.992996,-3.596001 1.487991,-4.339996c0.49501,-0.744003 -1.366989,-3.345001 -3.100998,-0.618004s-3.472992,3.101006 -4.462997,2.231003c-2.285995,-2.008003 -3.223999,-2.559998 -3.098999,0.744003c0.124008,3.222 -0.494995,2.600998 -1.115997,3.469994c-0.621002,0.870003 -1.613007,1.734001 -1.363998,2.604004s-0.621002,0.621002 -2.231003,0.992996c-3.791992,0.875999 -1.720993,-0.036995 -2.354996,-2.354996c-0.125,-1.985001 -1.074005,-3.662003 0.98999,-5.209c0.993011,-0.744003 -0.248993,-6.570999 -1.735992,-2.604004c0,0 -1.115997,1.367004 -1.115997,2.729004c0,1.362 -1.736008,0.618996 -1.487,3.471001c0.248993,2.851997 -0.744003,3.847 -2.35701,5.458c-1.612991,1.611 -3.841995,1.985001 -3.718994,4.216995s-2.357002,1.608002 -2.357002,4.709c0,3.101006 -1.860001,3.722 -1.860001,5.209c0,1.488007 -1.362,3.220001 -1.981995,4.338005c-0.621002,1.117996 -2.106003,2.602997 -2.231003,4.338997s-0.993004,3.098999 -2.108002,4.462997c-0.882996,1.080002 -3.713997,3.174004 -3.725998,6.245003c-0.001999,0.604004 -2.443001,1.007996 -2.919998,0.292007s-4.280006,-4.249008 -2.213005,-6.396004c2.067001,-2.147003 2.464005,-4.454002 2.624001,-6.284004s-1.193001,-3.580002 -2.943001,-1.830002s-6.682999,2.385002 -5.169998,-1.909996c1.513,-4.293999 3.897003,-5.324997 1.432999,-7.792c-2.463997,-2.466003 -0.476997,-4.054001 0.080002,-5.567001c0.556999,-1.513 -1.964996,-6.875 -5.783997,-6.875s-4.073006,0.370003 -5.841003,-0.072998c-1.374001,-0.345001 -2.135002,-3.060005 -1.022003,-4.015999s1.316002,-9.378006 -5.840996,-8.104004c-7.156998,1.273003 -15.472,0.217003 -17.858002,-0.5c-2.386997,-0.715996 -5.566998,1.036003 -7.793999,-1.510002c-2.227001,-2.545998 -5.736,-3.627998 -9.394001,-4.341995c-2.284,-0.445 -2.767998,-1.830002 -6.910999,-2.896004c-2.784,-0.716995 -6.098999,-1.792999 -9.882,-3.237999c-5.549,-2.117996 -6.936001,-0.803001 -8.177,-2.043999c-1.99,-1.989998 -4.892,-1.971001 -6.789999,-2.482002c-2.546,-0.686996 -7.815001,-0.932999 -6.425001,-4.307999c1.533,-3.723999 -1.021999,-6.937 -2.118,-7.301998c-1.625,-0.541 -2.891,-0.493 -5.914,-1.605999c-3.028,-1.109001 -3.112,-2.560001 -2.585,-3.037003l0,0z" fill="none" id="path1390"/>
  <path d="m144.718002,50.502998c0,0.780003 -0.389999,1.365002 0.584,1.559002s0.973999,-0.389999 1.55899,-1.559002c0.584015,-1.167999 0.972,-1.359997 0.388,-2.139999s0,-0.585999 -1.167999,-0.779999c-1.167999,-0.194 -1.556,-0.582001 -1.556,0.779999s-0.194,0.584 0,1.362c0.193008,0.778 0.193008,0.778 0.193008,0.778z" fill="#000000" id="path1392"/>
  <path d="m256.886993,70.414001c0,1.240997 0.994995,1.859001 1.984985,0.621002c0.990021,-1.239006 1.236023,-1.485001 2.477997,-1.611s2.113007,-0.993004 1.862,-1.985001s-0.743988,-0.742004 -1.487,-0.867004c-0.743988,-0.125999 -0.866974,-1.241997 1.610016,-0.992996c2.477997,0.249001 3.104004,0.617996 4.093994,1.859001s-0.005005,1.733994 1.235992,2.230995c1.240997,0.498001 3.102997,1.116005 1.985016,2.108002c-1.118011,0.992996 -0.739014,1.363998 -0.98999,2.108002c-0.251007,0.743996 1.235992,0.743996 -1.241028,0.494995c-2.478973,-0.249001 -2.107971,-0.124001 -2.975983,-0.743996s0.118011,-0.621002 -1.738007,-0.372002c-1.856995,0.249001 -1.488007,-0.621002 -3.098999,0.123001c-1.610992,0.743996 -1.36499,1.240997 -2.355011,0.498001c-0.98999,-0.744003 -0.25,-0.867004 -1.363983,-1.116005c-1.113007,-0.249001 -1.48201,-0.124001 -1.113007,-1.115997c0.370026,-0.990997 1.113007,-1.238998 1.113007,-1.238998z" fill="#000000" id="path1394"/>
  <path d="m226.391006,80.457001c0,0.866997 1.231003,1.485001 1.359009,0.618996c0.127991,-0.867996 -1.359009,-2.229996 -1.359009,-0.618996z" fill="#000A7F" id="path1396"/>
  <path d="m229.981003,84.300003c1.132004,0.564995 1.117996,0.494995 1.862,1.858994c0.742996,1.364006 1.737991,1.985001 2.604996,1.736s2.227005,-0.125 2.848007,-0.992996c0.619995,-0.866997 1.117996,-1.611 -0.493011,-1.982002c-1.610001,-0.372002 -2.610001,-1.115997 -3.22699,-1.487999c-0.615005,-0.372002 -1.984009,-0.125 -3.098007,-0.498001c-1.112991,-0.370995 -1.737991,0.745003 -0.496994,1.366005z" fill="#000000" id="path1398"/>
  <path d="m189.445007,94.628998c0.078003,-2.226997 0.401001,-1.353996 1.27301,-1.829994c0.871994,-0.477005 0.237,-1.191002 0.237,-2.067001c0,-0.875999 2.230988,-1.989006 1.988998,1.589996c-0.241013,3.580002 0.876999,1.989998 1.272995,1.910004c0.397003,-0.080002 0.237,2.146996 -0.716995,2.703995c-0.953003,0.556999 -0.314011,2.069 -2.623001,1.830002c-2.309998,-0.238998 -1.429001,-2.069 -1.27301,-2.545998c0.156998,-0.478004 -0.158997,-1.591003 -0.158997,-1.591003z" fill="#000000" id="path1400"/>
  <path d="m181.171997,100.355003c1.593002,0 1.113998,2.942993 -0.158997,2.783997s-0.794006,-2.783997 0.158997,-2.783997z" fill="#000000" id="path1402"/>
  <path d="m186.738998,89.697998c0.729996,0.050003 0.880997,2.227005 0.082001,2.067001c-0.798004,-0.159996 -1.194992,-2.143997 -0.082001,-2.067001z" fill="#000A7F" id="path1404"/>
  <path d="m194.059998,85.241997c-1.082001,-0.699997 -1.985001,1.034004 -0.953995,1.670006s2.544998,-0.637001 0.953995,-1.670006z" fill="#000A7F" id="path1406"/>
  <path d="m177.908997,88.425003c0.798996,0.065994 1.278,-1.193001 0.242004,-1.193001s-1.199997,1.112999 -0.242004,1.193001z" fill="#000A7F" id="path1408"/>
  <path d="m174.171997,127.237999c1.19101,1.510002 2.227997,3.021004 2.067001,0.954002c-0.158997,-2.067001 0.397003,-1.987 -0.158997,-2.543999c-0.557999,-0.556999 -0.072998,-1.433006 -1.429001,-1.353004c-1.354996,0.080002 -1.354996,1.830002 -0.479004,2.943001z" fill="#000000" id="path1410"/>
  <path d="m171.867004,132.091003c-0.812012,0.809998 -2.313004,0.317001 -1.354004,-0.876007c0.957993,-1.192993 2.070999,0.162003 1.354004,0.876007z" fill="#000000" id="path1412"/>
  <path stroke-width="5" stroke="#000000" d="m162.391998,303.825012c0.080002,-2.705994 2.466003,-7.794006 5.647003,-11.45401c3.181,-3.658997 5.406998,-15.108002 5.964005,-22.428986c0.261002,-3.39502 0.770996,-7.022003 0.917999,-10.084991c7.593002,-2.117004 2.440994,-1.314026 -0.072998,-1.679016c0.031998,-1.169006 -0.160004,-5.466995 -0.685013,-7.729996c-0.378998,-1.628998 -1.728989,-5.128998 -1.286987,-7.237c2.773987,-0.365005 2.628998,-1.533005 -0.990005,-1.109009c-0.542999,-1.552002 -1.158997,-3.039001 -1.936996,-4.621994c-1.990005,-4.057999 -0.878998,-2.943008 0.315994,-3.341003c1.195999,-0.395996 3.737,-3.582001 0,-1.988998s-2.705994,0 -3.5,-1.272995s-1.513,-1.906998 -1.75,-2.861008s0.796005,-1.751999 1.432999,-1.988998c0.636002,-0.237 1.033997,-2.386993 -0.556992,-1.671005c-1.590012,0.71701 -2.307007,-0.638992 -2.784012,-2.705994c-0.47699,-2.065994 -1.830002,-5.479996 -2.942993,-6.835007c-1.113007,-1.354996 -3.261002,-5.015991 0.716003,-8.354996c3.97699,-3.341003 2.543991,-8.584 2.067001,-10.098999c-0.477005,-1.515991 -1.271011,-3.660004 -2.147003,-4.613998c-0.876007,-0.953003 -1.96701,-2.847992 -1.589996,-3.106995s2.858994,2.149002 1.763992,-0.990005c4.162003,-5.330002 -1.990005,0.384003 -2.117996,0.145996c-0.235001,-0.437988 -0.464996,-0.804001 0.037003,-1.306c0.793991,-0.793991 2.224991,-1.350998 3.100998,-3.020996c0.875992,-1.669998 2.149002,-3.020996 2.705994,-5.567001c0.557007,-2.546997 1.51001,-3.181 2.145996,-5.169998c0.637009,-1.990005 0.399002,-2.701996 1.75,-2.623993c1.352005,0.076996 2.544006,-1.196014 0.95401,-1.753006c0,0 -1.589996,0.087006 -1.033005,-2.222c0.557007,-2.309998 0.477005,-3.020996 0.315994,-4.216995c-0.158997,-1.195007 -0.313995,-3.582001 0.399002,-3.423004c0.715012,0.160004 2.784012,0.319 0.557007,-1.350998c-2.229004,-1.669998 -0.876007,-1.514999 -0.956009,-1.988998c-0.078995,-0.475006 -0.237,-0.479004 -0.952988,-0.794006c-0.71701,-0.317001 -0.240005,-2.940994 1.431,-1.511002c1.669998,1.431 2.231003,1.587997 3.421997,1.511002c1.190994,-0.080002 2.860992,-1.593002 0.634995,-1.990005c-2.227997,-0.396988 -2.463989,-0.556992 -2.463989,-0.953995s-0.879013,-1.190994 -1.593002,-0.873993c-0.715012,0.317001 -1.438004,-1.985001 0.478989,-1.113998c0.872009,0.396988 0.95401,-0.157013 1.114014,-0.557007c0.158997,-0.399002 1.509995,-0.634003 1.669998,0.080002c0.158997,0.714005 0.395996,1.030991 0.556992,1.748001c0.158997,0.716003 0.794006,1.112991 1.511002,0.79599c0.716003,-0.316986 1.751999,-0.715988 0.876007,-1.75s-0.722,-0.159988 -1.355011,-0.636993c-0.634995,-0.477005 -0.396988,-0.953995 -0.077988,-1.509995c0.319992,-0.557007 0.00499,-1.19101 0.319992,-2.624008c0.313995,-1.432999 0.479004,-3.339996 -0.160004,-4.056992c-0.638992,-0.71701 -0.159988,-3.101013 0.794006,-2.863998s2.468994,1.587997 1.753006,1.431c-0.71701,-0.157013 -1.355011,1.274994 -0.640015,1.513c0.71701,0.237 2.310013,0.713989 2.866013,0.237s1.026001,-1.51001 0.154999,-2.387009c-0.872009,-0.875992 -0.71701,-2.386002 -0.237,-3.022995c0.478989,-0.637009 1.194992,-0.796005 1.988998,0.080002c0.793991,0.875992 1.748001,0.633987 1.748001,1.589996s0.953003,1.751999 1.272003,0.240005c0.319992,-1.513 0.639999,-2.307007 1.035995,-2.864014c0.397003,-0.556992 0.953995,-2.306992 1.906998,-2.306992c0.953995,0 0.479004,-0.554001 0.479004,-2.067001s1.035995,-2.382004 1.669998,-3.337997c0.634995,-0.956001 0.793991,-2.466003 1.030991,-3.5s1.036011,-1.590004 1.990005,-1.75c0.953003,-0.160004 1.427994,0.478996 0.475006,1.272995c-0.95401,0.793999 -1.350998,1.592003 -0.475006,2.862999s0.876007,2.943001 0.395996,3.896996c-0.478989,0.95401 -2.705994,3.183014 -1.112991,3.340012c1.593002,0.15799 1.429001,1.352997 0.634995,2.783997s-1.748001,3.339996 -1.190994,5.487s0.561996,2.942993 1.432999,3.419998c0.871994,0.477005 0.237,0.554001 0.953995,-0.160004c0.71701,-0.713989 1.108002,-1.270996 1.587997,0.399002c0.479004,1.669998 -0.076996,1.270996 1.195007,0.714005c1.272995,-0.557007 1.268997,-1.348007 1.352005,-2.384003c0.082001,-1.035995 0.952988,-1.272995 1.432999,-2.306992s0.478989,-1.590012 0.716995,-2.387009c0.235992,-0.796005 1.272003,-0.873993 1.509995,1.113007s0.160004,2.780991 1.27301,2.623993s0.94899,-0.634003 1.190994,-0.793991c0.240997,-0.160004 0.475006,0.156998 0.953003,0.713989c0.479004,0.557007 0.804001,0.95401 0.959,0c0.153992,-0.953995 -0.722,-1.431 -1.516006,-1.987991c-0.793991,-0.557007 -1.268997,-1.033005 -1.030991,-2.227005s0.556992,-1.352997 0,-2.386993s-0.794006,-0.794006 -1.113007,-1.51001c-0.319,-0.716995 -0.319,-1.751999 -0.319,-3.182999s-0.871994,-2.940994 0.082001,-3.020996c0.953995,-0.080002 1.587997,0.716003 1.748001,2.227005c0.158997,1.509995 0.634003,1.906998 0.634003,3.100998s0.242004,5.48999 1.035995,5.48999s1.268997,-1.115997 1.190002,-2.54599c-0.076996,-1.431 -0.634003,-2.227005 -0.475006,-3.897003c0.160004,-1.669998 0.083008,-3.263 -1.350998,-5.25c-1.432999,-1.987 -2.86499,-3.654999 -2.86499,-5.248001c0,-1.592003 -0.95401,-4.216003 0.319,-5.806999s2.22699,-3.897003 3.737,-1.590004s1.432999,1.351006 1.988998,1.907005s1.272995,1.350998 1.112991,2.306999c-0.158997,0.956001 -0.395996,1.751999 0.397003,2.069c0.794006,0.317001 1.751999,0.953995 1.593002,-0.240005c-0.160004,-1.192993 -0.160004,-0.955994 -0.479004,-1.909996s0,-1.193001 -0.716003,-1.510002c-0.716995,-0.317001 -0.634995,-1.907997 0.639008,-0.874001c1.272003,1.034004 1.112991,0.872002 2.067001,1.748001c0.953003,0.875999 4.535004,0.083 2.386002,-0.793999c-2.14801,-0.875999 -1.751999,-1.352997 -1.751999,-1.910004s-0.396011,-0.319 -1.907013,-0.636993c-1.510986,-0.317001 -2.230988,-0.160004 -2.705994,-1.034004c-0.475006,-0.874001 -0.237,-1.513 -1.190994,-1.273003c-0.953003,0.240005 -0.159012,-1.268997 0.793991,-1.747993c0.95401,-0.479004 1.671005,-1.114006 3.104004,-0.796005c1.432999,0.317001 1.988998,-0.398994 3.5,-0.159996c1.511002,0.238998 2.063004,0.001999 2.860992,-0.874001s1.757004,-0.795998 0.241013,-1.75c-1.514999,-0.954002 -0.639008,-0.956001 -0.639008,-1.273003c0,-0.317001 -0.313995,-0.159996 -1.587997,0.080002s-0.561996,1.352997 -2.309006,-0.556999c-1.748001,-1.910004 -1.98999,-2.467003 -2.546997,-4.137001c-0.556992,-1.669998 -1.748001,-4.850998 0.716995,-6.681c2.464005,-1.830002 3.49501,-2.704002 4.134003,-3.5c0.639999,-0.795998 1.27301,-1.75 0.160004,-2.387001s0.397003,-1.75 2.227005,-1.112999c1.830002,0.636002 2.067001,0.319 3.020996,0.238998c0.953003,-0.080002 0.957993,0.319 0.798004,-1.033997c-0.158997,-1.353004 0.552994,-2.783005 3.259003,-0.160004c2.705994,2.624001 3.737,1.669998 4.850998,2.227005s2.865997,1.268997 3.582001,2.383995c0.716995,1.116005 3.098999,1.432999 5.011002,0.399002s4.937988,-0.397003 7.081985,1.193001c2.146011,1.589996 2.300003,1.985001 2.542007,4.133995s1.675003,3.580002 5.572006,3.420006c3.895996,-0.160004 4.376007,-0.083 5.886993,1.987c1.51001,2.069 3.975006,1.591995 5.170013,1.830002s3.106995,1.352997 4.457977,1.75c1.35202,0.396996 2.067017,1.270996 2.861023,0.713997s1.43399,-0.556999 2.148987,-0.397003c0.71701,0.160004 1.907013,1.036003 1.031006,1.433006s-0.237,1.352997 1.03598,1.113998c1.27301,-0.240005 1.511017,-0.796005 1.351013,0.953995c-0.158997,1.75 -0.067993,0.956001 0.246002,2.069c0.315002,1.114006 0.393005,1.351006 1.428986,2.624001c1.036011,1.273003 1.19101,1.351006 2.067017,2.784004c0.876007,1.432999 1.514984,3.100998 -0.078003,3.419998c-1.59201,0.319 -1.82901,0.317001 -2.385986,1.75c-0.558014,1.432999 -1.511017,1.828003 -2.228027,2.463997c-0.715973,0.637001 -0.395996,2.227005 1.990021,4.137001c2.385986,1.910004 4.057007,3.421997 5.406982,4.693008s1.670013,6.043991 1.907013,8.270996c0.237,2.227005 0.63501,4.132004 -0.71701,5.724991c-1.15799,1.369003 -0.798004,3.146011 -0.268982,4.025009c0.086975,0.143997 0.177979,0.263 0.268982,0.352005c-5.041992,2.881989 -1.391998,1.932999 0.799011,2.662994c0.401001,1.203995 1.264984,2.750992 1.113007,3.541c-0.319,1.669998 -1.433014,3.181 -1.59201,3.181c-1.570007,-0.005005 -1.510986,0.953003 -1.510986,2.386993c0,0.794006 -0.95401,1.51001 -1.27301,0.716003s-0.237,-1.983994 -0.794006,-2.067001c-0.557007,-0.082001 0.242004,-0.638992 -0.557007,-0.082001s-1.510986,0.237 -1.27298,2.227997c0.237,1.989014 -1.433014,3.098999 -1.272003,5.407013c0.158997,2.30899 1.354004,5.963989 -1.90802,7.953995c0,0 -2.148987,0.483002 -2.86499,2.628006c-0.71701,2.145996 -1.902985,0.232986 -3.417999,1.268997c-1.515991,1.035995 -4.144012,1.830002 -4.299011,4.216995s-0.875977,2.468994 -0.953979,3.582001c-0.076996,1.113007 0.242004,4.139999 -0.475006,5.171005c-0.716003,1.030991 0.078003,3.89299 1.510986,5.483994c1.433014,1.593002 2.943024,3.746994 3.897003,3.587006c0.953003,-0.159012 3.335999,-1.669998 4.134003,-0.319c0.799011,1.350998 0.959015,1.593002 1.355011,2.386993c0.397003,0.794006 1.186981,-0.154999 1.824982,-1.190994c0.639008,-1.035004 1.675018,-1.916 2.392029,-3.503998c0.715973,-1.588013 1.984985,-2.146011 2.860992,-2.305008c0.876007,-0.160004 2.22699,-3.024994 3.102997,-5.015991c0.876007,-1.989014 1.747986,-5.170013 2.546997,-5.489014c0.798004,-0.319 1.113007,-2.304993 1.433014,-3.181s0.870972,-0.237 1.350983,-0.953995c0.479004,-0.716003 0.562012,-2.231003 1.515991,-2.468994c0.953003,-0.237 2.304016,-0.072006 3.180023,-0.314011c0.876984,-0.241989 1.113983,-1.834991 1.43399,-1.911987s3.181,0.163986 3.737,-1.985001s8.277008,-4.294006 12.891998,2.942993c4.613007,7.237 4.608002,7.712006 5.088013,9.542007c0.478973,1.829987 0.715973,7.396988 1.592987,9.623993c0.876007,2.227997 4.144012,9.076996 4.618011,15.360001c0.474976,6.283997 1.824982,5.563004 2.144989,7.475006s0.395996,0.556992 -0.160004,1.354996s0.484009,1.511002 1.355011,1.272995c0.871979,-0.237 0.630005,2.227005 0.712006,2.943008c0.082001,0.715988 1.117981,2.230988 2.071991,2.86499c0.953003,0.63501 0.628998,4.057007 -0.242004,5.011002c-0.872009,0.95401 -0.867004,4.139008 -0.712006,6.681s0.634003,6.763 0.076996,8.27301s-0.313995,4.134995 -1.350983,4.453995s-1.984009,-0.315002 -2.46402,-1.587997c-0.478973,-1.27301 -4.221985,-1.985001 -4.85498,-1.113998c-0.63501,0.871994 -5.567017,2.623993 -3.578003,3.974991c1.98999,1.35199 0.639984,2.468994 -0.634003,3.423004s-1.592987,0.479004 -1.433014,3.104004c0.159027,2.623993 0.232025,2.463989 0.475006,3.895996c0.240997,1.433014 -1.195984,3.263 -4.139984,5.092987s-6.046021,1.355011 -6.443024,6.046997c-0.395996,4.690002 1.475006,8.716003 -0.423981,9.665009c-2.095001,1.050018 -1.565002,2.428009 -1.565002,3.222015s-0.397003,2.468994 -1.113007,2.705994c-0.71701,0.237 -1.19101,2.304993 -1.031006,2.623993c0.158997,0.319 -1.27298,0.552002 -1.98999,0.634003c-0.716003,0.082001 -0.721008,-0.240997 -1.515015,1.670013c-0.793976,1.911987 -0.957977,1.984985 -1.112976,2.942993c-0.154999,0.958984 0.087006,0.794983 -0.712006,1.43399s-0.160004,0.479004 -0.160004,0.479004l-133.802002,0.078003z" fill="none" id="path1414"/>
  <path d="m195.438004,135.369995c0.36499,-1.167999 0,-2.190002 0.729004,-2.847992c0.729996,-0.656998 1.752991,-0.876007 1.53299,0.291992c-0.218994,1.167999 -0.291992,1.460007 -0.584,2.335999c-0.291992,0.876007 -0.218994,1.022003 0,2.118011c0.220001,1.095001 -0.071991,1.167999 -0.511002,2.116989s-1.679993,2.556 -1.897995,1.679001c-0.218994,-0.875992 -0.656998,-1.313995 0.072998,-1.824997s0.802994,0.584 1.022003,-0.656998c0.218994,-1.240997 0.949005,-1.751999 0.218994,-1.824997c-0.729996,-0.072998 -1.313995,-0.219009 -0.94899,-0.803009s0.365997,-0.584 0.365997,-0.584z" fill="#000000" id="path1416"/>
  <path d="m208,267c0,1 -0.306564,2.458801 1,3c0.923874,0.38269 2,1 5,1c3,0 5,0 8,0c2,0 7.053497,0.459503 9,0c2.176254,-0.513733 5,-4 6,-5c1,-1 1,-3 1,-4l0,-1l0,-2l-1,-2" id="svg_1" stroke-width="5" stroke="#000000" fill="none"/>
  <path d="m206,268c3,-4 5.789856,-7.07843 7,-10c1.711411,-4.131714 3,-7 3,-9c0,-2 0,-6 0,-8c0,-4 -1.538696,-6.60643 -4,-8c-3.587921,-2.031448 -5,-2 -8,-2c-4,0 -6.186005,0.692551 -8,2c-3.441803,2.480713 -4.569504,4.132996 -6,8c-2.327393,6.291519 -3,9 -3,15c0,4 -0.352539,8.865509 10,12c4.785461,1.448914 11.997437,3.684937 22,-1c7.684174,-3.599091 12.651123,-9.923523 20,-23c2.638321,-4.694595 5,-19 5,-25c0,-5 -2.571106,-12.679474 -7,-15c-2.801086,-1.467636 -10,-1 -13,-1c-4,0 -11.769516,5.390991 -14,9c-1.662506,2.689987 -2.867508,12.075836 -2,17c2.030807,11.527176 6.543106,14.94516 12,17c10.463104,3.939972 15.825699,4.197891 21,1c11.570099,-7.150711 10.499374,-19.962601 11,-30c0.896652,-17.977646 -0.6138,-29.85936 -6,-37c-9.80304,-12.99617 -16.918228,-15.303665 -26,-11c-7.667892,3.633652 -13.505646,12.199829 -22,30c-3.679749,7.710999 -7.836609,16.27066 -5,31c1.018372,5.287994 4.723358,11.488678 17,13c3.970032,0.488739 11.668381,0.008835 19,-14c3.961792,-7.569962 6,-27 6,-38l0,-8l-1,-11" id="svg_2" stroke-width="5" stroke="#000000" fill="none"/>
  <path d="m216,183c0,-1 0,-3 0,-4c0,-2 -0.458801,-2.693436 -1,-4c-0.38269,-0.923874 -1,-1 -2,-1c-1,0 -2.418854,-0.581146 -4,1c-1.581146,1.581146 -3.486252,3.823746 -4,6c-0.229752,0.973251 0,3 0,5c0,5 0,7 0,9c0,2 0,3 1,3c1,0 2.486252,-0.823746 3,-3c0.229752,-0.973251 0.61731,-2.076126 1,-3c0.541199,-1.306564 1,-3 1,-4c0,-1 -0.076126,-2.61731 -1,-3c-1.306564,-0.541199 -3,-1 -4,-1c-1,0 -3.458801,0.693436 -4,2c-0.38269,0.923874 -1.458801,1.693436 -2,3c-1.148056,2.771637 0,4 0,5l0,2l0,1l1,1" id="svg_3" stroke-width="5" stroke="#000000" fill="none"/>
  <path d="m220,171c0,0 -1,0 -2,0c-1,0 -1.076126,0.61731 -2,1c-1.306564,0.541199 -1.789856,2.07843 -3,5c-0.855713,2.065857 -2.972519,3.647491 -4,8c-0.229752,0.973251 -1.292892,3.292892 -2,4c-0.707108,0.707108 -0.486252,4.823746 -1,7c-0.229752,0.973251 -2,5 -1,5c1,0 0,-4 1,-6c1,-2 2.981628,-4.712006 4,-10c0.756424,-3.927826 1,-6 1,-7c0,-2 0.707108,-3.292892 0,-4c-0.707108,-0.707108 -2.234634,1.152237 -3,3c-1.082397,2.613129 -1.692551,4.186005 -3,6c-0.826904,1.147263 -1.496231,2.907791 -2,7c-0.24437,1.985016 0,3 0,6c0,1 0,2 1,2c1,0 2.346191,-0.70546 4,-3c1.307449,-1.813995 3.310745,-8.080246 4,-11c0.513748,-2.176254 1,-4 0,-4c-1,0 -2.877655,0.06601 -4,2c-1.809723,3.118484 -3.917603,4.386871 -5,7c-1.148056,2.771637 -1,7 -1,8c0,1 -0.147263,5.173096 1,6c1.813995,1.307449 8,3 11,3c2,0 5.144287,-2.934143 6,-5c1.210144,-2.92157 2,-7 2,-9c0,-2 0.306564,-3.458801 -1,-4c-1.847763,-0.765366 -3.270187,-1.00386 -5,0c-6.973129,4.046661 -6.270691,11.94191 -7,16c-1.60173,8.912598 -1.181259,13.004105 -1,17c0.500519,11.034012 1.55954,17.537903 10,24c2.862854,2.191818 7.453049,4.663208 11,1c4.231262,-4.369949 5.998474,-12.916946 7,-31c0.3871,-6.989288 0,-11 -2,-17c-1,-3 -2.549149,-3.95517 -6,-5c-1.914185,-0.579575 -4.549011,0.606415 -8,6c-2.410278,3.767044 -5.95517,10.549149 -7,14c-0.869354,2.871277 0.331985,10.229355 2,14c1.458633,3.297333 6.053497,6.540497 8,7c2.176254,0.513748 3.237732,1.069031 4,-2c2.932526,-11.806793 3,-17 3,-24c0,-8 -0.012909,-10.839813 -1,-11c-3.121445,-0.506546 -4.418854,-0.581146 -6,1c-6.324554,6.324554 -7.245407,12.957123 -8,18c-1.487244,9.939224 -1,16 -1,24c0,2 3.639923,5.709229 11,9c2.886856,1.290741 6.679474,1.428894 9,-3c1.467636,-2.801086 4.080521,-10.144989 2,-25c-1.009766,-7.209747 -3.558197,-10.519287 -7,-13c-1.813995,-1.307449 -5.504318,-2.406006 -10,0c-2.493759,1.33461 -6.731445,10.076889 -8,14c-1.656845,5.123947 -3.366547,13.022476 -3,16c0.503769,4.092209 6,9 9,10c3,1 7,1 8,1c2,0 3,-5 3,-9c0,-5 0.226761,-15.529907 -2,-19c-3.458115,-5.389008 -8,-5 -10,-5c-5,0 -7.951889,3.032639 -10,6c-4.88649,7.079697 -5.493454,8.878555 -6,12c-0.640732,3.948349 -0.158142,7.171768 2,9c6.563751,5.560333 11.160507,7.378525 17,6c2.176254,-0.513748 4.497559,-2.925797 5,-8c0.39415,-3.98053 0.639206,-8.215118 -2,-15c-0.810623,-2.083954 -3.823746,-3.486252 -6,-4c-1.946503,-0.459503 -2.415894,0.761078 -4,4c-1.389359,2.840729 -2,11 -2,14c0,2 0.693436,4.458801 2,5c2.771637,1.148056 5,0 7,-3l1,-1" id="svg_4" stroke-width="5" stroke="#000000" fill="none"/>
  <path d="m216,174c0,0 1.292892,-0.292892 2,-1c0.707108,-0.707108 2.541199,-1.693436 2,-3c-0.765366,-1.847763 -3.402145,2.543579 -8,7c-3.590332,3.479874 -6.292892,5.292892 -7,6c-0.707108,0.707108 -0.321381,-0.127029 1,-3c2.436508,-5.297501 5.917603,-9.386871 7,-12c1.148056,-2.771637 1.234634,-4.152237 2,-6c1.082397,-2.613129 2.38269,-2.923874 2,-2c-0.541199,1.306564 -4.112137,4.918304 -7,9c-2.082474,2.943359 -4,6 -4,7c0,1 1.346191,0.29454 3,-2c1.307449,-1.813995 2.458801,-3.693436 3,-5c0.38269,-0.923874 -1.227325,-1.215088 -5,3c-4.270386,4.771149 -7.078583,8.938126 -11,14c-3.062119,3.952652 -4.923874,5.61731 -4,6c1.306564,0.541199 3.519287,-4.558197 6,-8c2.614899,-3.627991 4.296997,-7.613831 7,-10c1.676331,-1.479843 3.692551,-4.186005 5,-6c0.826904,-1.147263 0,3 -2,6c-4,6 -6.337494,12.310013 -8,15c-1.487,2.406006 -1.923874,3.38269 -1,3c2.613129,-1.082397 3.563492,-3.702499 6,-9c1.321381,-2.872971 2.692551,-8.186005 4,-10c0.826904,-1.147263 1.229752,-1.973251 1,-1c-0.513748,2.176254 -2.79393,5.087433 -5,10c-2.748062,6.119492 -6.972519,9.647491 -8,14c-0.229752,0.973251 -0.24469,-0.132004 2,-4c3.619446,-6.236954 7.973267,-12.454865 11,-19c3.05571,-6.607773 3.851944,-11.228363 5,-14c0.541199,-1.306564 0.787598,0.900665 -1,5c-3.415192,7.831757 -6.699814,15.166168 -14,28c-2.883011,5.068359 -2.750153,9.462585 -6,12c-0.788208,0.615417 -0.870331,1.114685 0,0c3.58844,-4.595993 7.380554,-8.763046 11,-15c3.367035,-5.801987 6.097885,-13.824432 8,-15c0.850647,-0.525726 1.087692,1.03067 0,4c-1.852264,5.056595 -6.195755,11.891708 -10,19c-5.275528,9.857422 -6.229752,11.973251 -6,11c1.541229,-6.528748 5.194092,-11.88855 8,-17c3.228043,-5.880447 4.789856,-10.07843 6,-13c1.711411,-4.131714 4,-7 3,-7c-2,0 -1.112137,4.918304 -4,9c-4.164932,5.886703 -10.399216,13.931595 -13,23c-0.275681,0.961243 -0.5112,1.777817 1,-1c3.059952,-5.624649 8.212875,-9.077408 11,-14c2.031448,-3.587921 8.867996,-8.75531 5,-11c-3.118484,-1.809723 -5.35817,8.807159 -9,16c-4.448868,8.786789 -8.563492,16.702499 -11,22c-1.321381,2.872971 0,2 3,-3c3,-5 8,-12 11,-18c3,-6 5.714127,-10.21167 8,-13c2.689789,-3.281006 3.292892,-5.707108 4,-5c0.707108,0.707108 -0.579697,5.156876 -3,11c-3.422821,8.263428 -10.417435,17.033539 -13,27c-0.501678,1.93605 -0.210144,-1.07843 1,-4c1.711411,-4.131714 2.49295,-7.234009 5,-12c1.678558,-3.190994 3.95517,-6.549149 5,-10c0.28978,-0.957092 -0.79393,2.087433 -3,7c-2.748062,6.119492 -7,13 -10,19c-2,4 -3.992508,6.877823 -3,7c4.092209,0.503769 3.448792,-11.824249 6,-19c2.438766,-6.859482 4.986923,-12.757111 6,-19c0.160187,-0.987091 1,-1 1,0c0,2 0,4 0,7c0,3 -1.486252,9.823746 -2,12c-0.459503,1.946503 0.359344,4.519302 2,3c4.278305,-3.961838 4.977585,-11.444366 8,-17c3.059952,-5.624649 4.945541,-5.909775 4,-1c-1.018372,5.287994 -5,13 -7,17c-2,4 -2,5 -2,4c0,-2 0.095444,-4.977341 1,-9c1.118668,-4.974792 2.540497,-8.053497 3,-10c0.513748,-2.176254 2,-2 2,0c0,3 -2.293503,8.881378 -5,16c-3.371429,8.867554 -6.981628,15.712006 -8,21c-0.37822,1.963913 1.345444,0.191666 4,-5c3.467102,-6.780792 4.73143,-14.45314 11,-30c1.672363,-4.147675 5,-9 3,-9c-2,0 -0.191696,4.907913 -3,11c-11.818619,25.63826 -16,31 -13,31c1,0 0.789856,-4.07843 2,-7c2.567123,-6.197571 4.939194,-12.02475 7,-17c2.914429,-7.036057 3.540497,-9.053497 4,-11c0.513748,-2.176254 1,-3 1,-1c0,5 -2.796646,13.093155 -7,22c-3.817291,8.088776 -6.497559,14.925797 -7,20c-0.098541,0.995132 0.519287,-0.558197 3,-4c3.922363,-5.441971 6,-13 12,-28c2,-5 3.95517,-7.549149 5,-11c0.28978,-0.957092 0,0 0,3c0,4 -1.969193,9.472824 -4,21c-0.347,1.969666 -0.295609,2.985397 0,0c0.502441,-5.074203 1.597229,-12.089066 4,-22c1.715271,-7.07515 3.992447,-14.815567 5,-23c0.366547,-2.977524 0,-4 0,-5c0,-1 0,0 0,2c0,3 0,5 0,10c0,2 0,3 0,2c0,-2 0,-5 0,-8c0,-1 0.306564,-2.458801 -1,-3c-0.923874,-0.38269 -3.152237,-0.765366 -5,0c-2.613129,1.082397 -5.458801,4.693436 -6,6c-0.38269,0.923874 0,2 1,2c2,0 3.917603,0.613129 5,-2c0.38269,-0.923874 0.458801,-2.693436 1,-4c0.765366,-1.847763 0.707108,-4.292892 0,-5c-0.707108,-0.707108 -2,0 -3,0c-1,0 -1.95517,0.549149 -3,4c-0.28978,0.957092 -0.707108,2.292892 0,3c0.707108,0.707108 2.292892,0.707108 3,0c1.414215,-1.414215 0.306564,-3.458801 -1,-4c-0.923874,-0.38269 -2,0 -4,0c-1,0 -2.707108,0.292892 -2,1c1.414215,1.414215 4,0 5,0c1,0 1.973251,-0.229752 1,0c-2.176254,0.513748 -4,2 -5,2c-1,0 -1,1 0,1c3,0 8,1 12,2c4,1 9.292892,0.292892 10,1c0.707108,0.707108 0.229752,-0.026749 0,-1c-0.513748,-2.176254 -2.973251,-2.770248 -2,-3c2.176254,-0.513748 1,4 2,5c1,1 1,2 1,4c0,1 -0.076126,3.38269 -1,3c-2.613129,-1.082397 -3.458801,-2.693436 -4,-4c-0.38269,-0.923874 -1.051468,-1.701309 0,0c1.175568,1.902115 3,3 5,5c1,1 1.638321,-1.305405 -1,-6c-2.449631,-4.358826 -4.292892,-6.292892 -5,-7c-0.707108,-0.707108 -0.896591,-1.093674 0,0c2.285873,2.78833 3.692551,7.186005 5,9c1.653809,2.29454 2,3 2,2c0,-1 0.346191,-0.29454 2,2c1.307449,1.813995 2.789856,4.07843 4,7c0.855713,2.065857 2,4 2,5c0,1 0,2 0,3c0,2 0,3 0,5c0,1 0,4 0,5c0,1 0,4 0,5c0,2 0,3 0,6c0,2 0,5 0,8c0,3 -0.493454,5.878555 -1,9c-0.160187,0.987091 -0.292892,1.292892 -1,2c-0.707108,0.707108 -1.234634,2.152237 -2,4c-1.082397,2.613129 -1.693436,4.541199 -3,4c-0.923874,-0.38269 -0.229752,-3.026749 0,-4c0.513748,-2.176254 1.292892,-2.292892 2,-3c2.121323,-2.121323 1.496231,-4.907791 2,-9c0.366547,-2.977524 0,-4 0,-7c0,-2 0,-3 0,-6c0,-1 0,-2 0,-5c0,-1 0,-3 0,-5c0,-2 0,-3 0,-4c0,-1 0,-2 0,-3c0,-1 0,-2 0,-3c0,-2 0,-3 0,-6c0,-1 -0.458801,-1.693436 -1,-3c-0.38269,-0.923874 0,1 0,4c0,3 0.480377,6.074814 -1,14c-0.75708,4.053009 -1.990234,7.790253 -3,15c-0.55481,3.961334 0.305542,7.082642 -2,15c-0.88414,3.036163 -1.199081,6.06456 -2,11c-0.506546,3.121445 -1,5 -1,8c0,1 0,4 0,1c0,-3 0,-7 0,-14c0,-6 0,-14 0,-33c0,-11 -1.649612,-21.068146 0,-41c0.501709,-6.062042 3,-10 1,-10c-2,0 0.496231,4.907791 1,9c0.610916,4.96254 0.692993,18.00589 1,26c0.500366,13.028793 1,18 1,23c0,8 0,11 0,14c0,4 0,5 0,3c0,-2 0,-5 0,-9c0,-5 0,-17 0,-23c0,-3 0,-6 0,-8c0,-1 -0.486252,-2.176254 -1,0c-0.919006,3.89299 0,9 0,23c0,6 0,11 0,14c0,1 -1.237732,1.069031 -2,-2c-1.466263,-5.903397 -2,-11 -2,-21c0,-8 0,-24 0,-32c0,-5 1,-14 0,-14c-2,0 0,5 0,8c0,8 0.298889,13.007446 0,19c-0.500626,10.037399 -1.144714,15.052444 -2,22c-0.503769,4.092209 -1,7 -1,10c0,1 0,-1 0,-8c0,-7 -1,-27 -1,-36c0,-8 0,-20 0,-25c0,-2 0,-3 0,0c0,2 0,4 0,7c0,8 0.397369,13.013168 0,19c-1.002197,15.099518 -3,22 -3,34c0,4 0,7 0,10l0,4l0,2" id="svg_5" stroke-width="5" stroke="#ffffff" fill="none"/>
  <path d="m242,186c0,0 0.292892,-0.292892 1,-1c0.707108,-0.707108 0,-2 0,-3c0,-1 1,-1 1,0c0,1 0,2 0,3c0,1 1,1 2,1c1,0 1,-1 1,-2c0,-1 -0.458801,0.693436 -1,2c-0.38269,0.923874 -1,1 -1,2c0,1 0,2 0,3c0,1 0,0 0,-3c0,-1 0,-4 0,-5c0,-1 -1,-1 -2,-1c-1,0 -2,1 -2,3c0,1 0,2 0,4c0,1 1.292892,1.707108 2,1c0.707108,-0.707108 0.497559,-2.925797 1,-8c0.197083,-1.990265 1.577194,-4.448044 0,-7c-1.175568,-1.902115 -2.937958,-1.498291 -9,-2c-2.989777,-0.247437 -7.289124,-0.951309 -12,1c-3.3311,1.379791 -4,3 -4,5c0,3 1,6 2,8c1,2 3,2 4,2c1,0 3.493454,-7.878555 4,-11c0.640732,-3.948349 0.24437,-9.014984 0,-11c-0.503769,-4.092209 -2.173096,-4.852737 -3,-6c-1.307449,-1.813995 -2,-2 -3,-2c-2,0 -2,1 -2,2c0,1 -0.076126,1.61731 -1,2c-1.306564,0.541199 -3.458801,2.693436 -4,4c-0.38269,0.923874 0,2 0,3c0,1 0.707108,-0.292892 0,-1c-0.707108,-0.707108 -1,1 -1,2c0,1 -0.306564,3.458801 1,4c0.923874,0.38269 3.292892,0.707108 4,0c0.707108,-0.707108 0,-3 0,-5c0,-3 -1,-4 -2,-4c-2,0 -2.486252,0.823746 -3,3c-0.459503,1.946503 -0.197083,4.009735 0,6c0.502441,5.074203 1.823746,7.486252 4,8c3.89299,0.919006 6,0 6,-1c0,-3 0,-5 0,-14c0,-2 -0.292892,-3.292892 -1,-4c-0.707108,-0.707108 -1.789093,0.023346 -3,10c-0.85199,7.019547 -2.552383,14.98172 -2,34c0.262909,9.051575 6.723984,21.222733 10,25c1.853195,2.136749 7,4 8,4c1,0 3,0 3,-2c0,-2 1,-8 0,-8c-3,0 -0.493454,5.878555 -1,9c-0.480545,2.961258 -2,6 0,6c2,0 1,-5 1,-10c0,-6 1.414215,-14.585785 0,-16c-0.707108,-0.707108 -3,-1 -4,-1c-2,0 -3.173096,-0.147263 -4,1c-1.307449,1.813995 -3,8 -3,11c0,2 0.346191,5.70546 2,8c2.614899,3.627991 3,5 4,5c1,0 1.273453,-0.922318 2,-4c1.624603,-6.881912 1,-10 1,-13c0,-3 -1,-2 -1,1c0,4 0,7 0,13c0,2 -1,4 0,4c5,0 0,-12 0,-20c0,-6 0,-9 0,-11c0,-1 0,0 0,4c0,5 0,11 0,18c0,12 0,15 0,18c0,4 0,5 0,2c0,-5 1.588379,-13.097397 0,-26c-0.503769,-4.092209 1,-10 -1,-10c-4,0 0,12 0,21c0,8 -0.466263,15.096603 1,21c0.762268,3.069031 2,5 3,5c1,0 0.948532,-0.298706 2,-2c1.175568,-1.9021 3,-5 3,-6c0,-2 0,-3 0,-4c0,-2 -0.144287,-3.065857 -1,-1c-1.210144,2.92157 -2,5 -2,6c0,1 -0.366547,-0.022476 0,-3c0.503769,-4.092209 3,-12 3,-14c0,-2 -0.789856,-0.92157 -2,2c-0.855713,2.065857 -1.234634,5.152237 -2,7c-0.541199,1.306564 -1,2 -1,1c0,-3 0.292892,-4.292892 1,-5c0.707108,-0.707108 0.122177,-1.992508 0,-1c-0.503769,4.092209 -3.231735,7.927673 -5,14c-1.152771,3.958679 -2.229752,7.973236 -2,7c0.513748,-2.176239 0.585785,-4.585785 2,-6c0.707108,-0.707092 1.459503,-0.946503 1,1c-0.513748,2.176239 1.092209,8.503784 -3,8c-1.985016,-0.244354 -0.707108,-4.292908 0,-5c0.707108,-0.707092 0.775803,-1.097168 0,1c-1.430496,3.867004 -2.173096,6.852722 -3,8c-1.307449,1.813995 -1.480545,0.961273 -1,-2c0.506546,-3.121429 2,-5 2,-7c0,-1 0.459503,0.053497 0,2c-0.513748,2.176239 -1.707108,3.292908 -1,4c0.707108,0.707092 2,0 3,0c1,0 2,0 3,0c1,0 1.093674,-0.896606 0,0c-2.78833,2.285889 -3.386871,3.917603 -6,5c-0.923874,0.38269 -2,1 -1,1c2,0 3.585785,1.414215 5,0c0.707108,-0.707092 -0.076126,-1.61731 -1,-2c-1.306564,-0.541199 -2,-1 -4,-1c-1,0 -3,0 -4,0c-1,0 -2,0 -3,0c-2,0 -3.076126,0.38269 -4,0c-1.306564,-0.541199 -2,-1 -3,-1c-1,0 -1.292892,-0.292908 -2,-1c-0.707108,-0.707092 -2,0 -3,0c-1,0 -2,0 -3,0c-1,0 -2,0 -3,0c-1,0 -2,0 -3,0c-1,0 -1.292892,-0.292908 -2,-1c-0.707108,-0.707092 -2,0 -3,0c-1,0 -2.292892,0.707092 -3,0c-0.707108,-0.707092 -1.292892,-0.292908 -2,-1c-0.707108,-0.707092 -0.292892,-2.292908 -1,-3c-0.707108,-0.707092 -1,-1 -2,-1c-1,0 -1,-1 -1,-2c0,-1 -1,-2 -1,-3c0,-1 0,-2 0,-3c0,-1 0,-2 0,-3c0,-1 0,-2 0,-3c0,-1 0.292892,-1.292892 1,-2c0.707108,-0.707108 1.61731,-1.923874 2,-1c0.541199,1.306564 -2.71022,3.042908 -3,4c-1.04483,3.450851 -3,4 -4,5l0,1l-1,1" id="svg_6" stroke-width="5" stroke="#ffffff" fill="none"/>
  <path d="m186,261c0,0 1,0 2,0c1,0 1.292892,0.292908 2,1c0.707108,0.707092 0.292892,1.292908 1,2c0.707108,0.707092 1.692551,1.186005 3,3c0.826904,1.147278 2,1 2,2c0,1 0.292892,1.292908 1,2c0.707108,0.707092 2,0 3,0c1,0 0,0 -1,0c-1,0 -2,0 -3,0l-1,0l-1,0" id="svg_7" stroke-width="5" stroke="#ffffff" fill="none"/>
  <path d="m179,260c0,0 0,-1 0,-2l0,-1l0,-1" id="svg_8" stroke-width="5" stroke="#ffffff" fill="none"/>
  <path d="m179,262" id="svg_9" stroke-width="5" stroke="#ffffff" fill="none"/>
  <path d="m188.571106,266c0,0 1.47403,-3 0,-3c-1.474045,0 0,3 0,4c0,1 0,2 0,3c0,1 2.201401,1.121429 2.948074,-2c0.708344,-2.961273 0,-7 0,-10c0,-5 0.451889,-7.541199 -1.474045,-7c-4.085495,1.148056 0,5 0,7c0,2 -2.948074,5 0,5c1.474045,0 0,-2 0,-3c0,-2 0.451889,-3.458801 -1.47403,-4c-1.361832,-0.38269 -3.379822,-0.707108 -4.422134,0c-1.042297,0.707092 0,3 0,5c0,1 -0.451889,2.458801 1.474045,3c1.361832,0.38269 2.383987,-0.076111 2.94809,-1c0.797745,-1.306549 1.47403,-2 1.47403,-3c0,-1 -1.47403,-1 -1.47403,0c0,2 0,4 0,5c0,1 1.905777,1.707092 2.948074,1c1.042313,-0.707092 0,-3 0,-4c0,-2 0.451889,-3.458801 -1.474045,-4c-1.361816,-0.38269 -3.624374,-0.306549 -4.422119,1c-0.564102,0.923889 0,2 0,3c0,2 -0.338669,3.026764 0,4c0.757294,2.176239 2.94809,3 4.422119,3c1.474045,0 1.474045,-1 1.474045,-2c0,-2 0,-3 0,-4c0,-1 -1.905777,-1.707092 -2.948074,-1c-1.042313,0.707092 -1.042313,3.292908 0,4c1.042297,0.707092 3.379807,0.707092 4.422119,0c1.042297,-0.707092 0,-2 -1.474045,-2c-1.474045,0 -2.948074,0 -2.948074,1c0,1 0,2 0,3c0,1 -0.856644,2.418854 1.47403,4c2.330673,1.581146 4.64653,1.765381 7.370209,1c1.925934,-0.541199 1.474045,-3 1.474045,-4c0,-1 0.564102,-3.076111 0,-4c-0.797745,-1.306549 -3.379822,-1.292908 -4.422119,-2c-2.08461,-1.414215 -4.422134,0 -5.896164,1c-1.474045,1 -1.474045,3 -1.474045,5c0,1 1.376968,4.144287 4.422119,5c4.306519,1.210144 13.323471,3.48056 17.688492,3c4.601135,-0.506531 7.370209,-3 8.844254,-5c2.948074,-4 2.948074,-6 2.948074,-7c0,-2 -1.174805,-3.2565 -2.948074,-4c-3.965164,-1.662506 -7.370209,-1 -10.318298,-1c-1.47403,0 -1.47403,1 -1.47403,2c0,2 -0.453201,3.186005 1.47403,5c2.43779,2.294525 4.422134,3 5.896164,3c1.474045,0 4.422134,0 5.896164,0l0,-1l1.474045,0" id="svg_10" stroke-width="5" stroke="#ffffff" fill="none"/>
  <path d="m227,223c0,0 0.707108,-1.292892 0,-2c-0.707108,-0.707108 -3,0 -4,0c-1,0 -2,0 -3,0c-1,0 -1.839813,2.012909 -2,3c-0.506546,3.121445 -2,7 -2,8c0,2 -0.229752,5.026749 0,6c0.513748,2.176254 1.292892,2.292892 2,3c2.121323,2.121323 4.877655,-1.06601 6,-3c3.619446,-6.236954 4.24437,-11.014984 4,-13c-0.503769,-4.092209 -1.31076,-5.534927 -3,-7c-2.388962,-2.07193 -4,-1 -5,-1c-1,0 -2,1 -2,3c0,2 0,5 0,7c0,3 4,6 5,6c2,0 6.083618,-0.973404 7,-4c3.304047,-10.912521 3.640732,-17.051651 3,-21c-1.013077,-6.242889 -3,-7 -5,-7c-2,0 -3.171936,-0.560623 -4,0c-4.459274,3.019073 -4,8 -4,13c0,3 -1.031448,5.412079 1,9c0.696777,1.230652 2.026749,2.229752 3,2c2.176254,-0.513748 2.95517,-1.549149 4,-5c0.579575,-1.914185 0,-3 0,-7c0,-1 -1.493454,-1.121445 -2,2c-0.480545,2.961258 0,6 0,10c0,3 -2.121323,5.878677 0,8c0.707108,0.707108 2.211792,0.615417 3,0c3.249847,-2.537415 1.989761,-10.040894 1,-22c-0.501709,-6.062042 -4,-12 -6,-13c-2,-1 -5.014984,-1.24437 -7,-1c-4.092209,0.503769 -9.228851,5.729614 -14,10c-2.107544,1.886337 -5,6 -5,7c0,2 -1.148056,6.228363 0,9c1.082397,2.613129 3,2 3,1c0,-4 0,-6 0,-9c0,-3 -1.917603,-3.386871 -3,-6c-0.38269,-0.923874 -1.693436,-1.458801 -3,-2c-0.923874,-0.38269 -2,0 -2,3c0,3 0,6 0,10c0,4 0,6 1,7c1,1 2,0 2,-3c0,-4 1.148758,-7.133759 0,-12c-0.513748,-2.176254 -1.292892,-2.292892 -2,-3c-0.707108,-0.707108 -1.310745,1.080246 -2,4c-0.513748,2.176254 -1,5 -1,11c0,3 1.186005,4.692551 3,6c1.147263,0.826904 2,1 2,0c0,-4 2.082367,-9.167862 0,-22c-0.506546,-3.121445 -2.486252,-4.823746 -3,-7c-0.229752,-0.973251 0,0 0,3c0,3 0,8 0,12c0,10 -0.389359,13.159271 1,16c1.584106,3.238922 3.012909,4.160187 4,4c3.121445,-0.506546 5.483932,-3.670349 7,-14c1.016495,-6.925797 0.499039,-14.953323 1,-23c0.186417,-2.994202 1,-6 0,-6c-1,0 -1.493454,2.878555 -2,6c-0.480545,2.961258 -0.512756,8.060776 -2,18c-0.754593,5.042877 -1,8 -1,14c0,3 0.674103,4.352905 2,1c2.236862,-5.65654 3.980484,-12.580521 6,-27c0.55481,-3.961334 1.197083,-5.990265 1,-4c-0.502441,5.074203 -3.733398,7.710983 -5,12c-2.564682,8.684601 -2,12 -2,13c0,2 -0.20607,-1.087433 2,-6c1.832031,-4.079666 3.497559,-8.925797 4,-14c0.098541,-0.995132 0.640732,2.051651 0,6c-1.013077,6.242889 -4.241531,13.949707 -6,23c-2.320374,11.942184 -2.992508,14.877823 -2,15c4.092209,0.503769 2.927963,-11.021896 6,-21c5.862839,-19.04277 8.496231,-25.907791 9,-30c0.488739,-3.970032 1,-4 1,-2c0,4 -1.334869,7.898575 -3,14c-3.769608,13.812683 -5.498734,18.946716 -6,26c-0.425339,5.984909 -0.486252,8.823746 -1,11c-0.459503,1.946503 -0.267899,-0.043533 1,-7c1.653137,-9.070129 4.310242,-17.034073 5,-24c0.502441,-5.074203 1.480545,-5.961258 1,-3c-0.506546,3.121445 -3.261627,7.915939 -7,20c-2.151596,6.954895 -3,11 -3,15c0,1 1.579697,-2.156876 4,-8c2.567123,-6.197571 7.493454,-16.878555 8,-20c0.320358,-1.974182 1,-4 1,-3c0,2 0.712692,6.051056 0,11c-2.525787,17.539108 -6,21 -6,23c0,1 -0.640732,-1.051651 0,-5c0.506546,-3.121445 4.417435,-5.033539 7,-15c0.752518,-2.904083 1.486252,-5.823746 2,-8c0.229752,-0.973251 0.24437,0.014984 0,2c-0.503769,4.092209 -6.654556,19.784225 -9,28c-1.39975,4.903137 -1,6 -1,5c0,-4 2.284729,-10.92485 4,-18c2.402771,-9.910934 6.569504,-27.132996 8,-31c1.55159,-4.194351 2,-3 2,0c0,3 0.283554,7.010056 0,11c-1.002518,14.106552 -3.847229,21.041321 -5,25c-0.88414,3.036163 -1.756424,1.927826 -1,-2c1.018372,-5.287994 5.095444,-14.977341 6,-19c1.118668,-4.974792 0.292892,-9.292892 1,-10c0.707108,-0.707108 1.912781,1.08403 1,6c-2.542725,13.694321 -7.376694,19.887314 -9,26c-1.308762,4.928207 0.450516,3.301178 3,-1c6.161102,-10.394272 7.147736,-13.943405 9,-19c1.087692,-2.96933 3,-4 2,-4c-2,0 0.480545,5.038742 0,8c-1.519623,9.364334 -4.486252,11.823746 -5,14c-0.459503,1.946503 -0.662506,0.689987 1,-2c1.487,-2.406006 4.486252,-6.823746 5,-9c0.229752,-0.973251 1.320358,-1.974182 1,0c-0.506546,3.121445 -3.345184,8.176971 -5,13c-1.45137,4.230072 -5,11 -4,11c2,0 2.231735,-5.927673 4,-12c1.152771,-3.958679 1.692551,-8.186005 3,-10c0.826904,-1.147263 1,-3 1,-4c0,-2 1,-4 0,-4c-1,0 0.268555,4.076889 -1,8c-1.656845,5.123947 -4,11 -4,12c0,1 0.648865,0.80423 3,-3c2.628662,-4.25325 6.75531,-15.132004 9,-19c1.809723,-3.118484 2,-4 2,-2c0,2 -0.944641,6.019028 -2,9c-2.85141,8.054153 -3.789856,11.07843 -5,14c-1.711411,4.131714 -2.292892,5.707108 -3,5c-2.121323,-2.121323 0,-7 2,-14c2,-7 0.563477,-13.918091 5,-22c0.680527,-1.2397 1,4 -1,8c-3,6 -6.903397,17.016907 -8,23c-0.91925,5.015472 -3.972519,12.647491 -5,17c-0.919006,3.893005 0.346191,5.294525 2,3c1.307449,-1.813995 1.79393,-4.087433 4,-9c0.916016,-2.039825 1.458801,-3.693436 2,-5c0.38269,-0.923874 -0.692551,-0.813995 -2,1c-0.826904,1.147263 -2.496231,1.907791 -3,6c-0.122177,0.992493 0.053497,2.459503 2,2c2.176254,-0.513733 4,-3 6,-7c1,-2 1,-4 1,-6c0,-2 -1.026749,-2.229752 -2,-2c-4.352509,1.027481 -5.171768,4.841858 -7,7c-5.560333,6.563751 -5.2565,8.796997 -6,10c-1.662506,2.690002 -1,6 -1,8c0,3 0,4 2,4c1,0 3.44841,-1.805664 5,-6c2.860992,-7.734009 2.977463,-11.059937 2,-19c-0.503769,-4.092209 -1.925797,-6.497559 -7,-7c-1.990265,-0.197083 -4.372009,-0.614899 -8,2c-2.29454,1.653809 -4,5 -7,11c-1,2 -2,4 -2,7c0,1 3,2 6,2c2,0 6.917603,-0.386871 8,-3c0.765366,-1.847748 4,-9 4,-11c0,-2 -0.026749,-5.229752 -1,-5c-2.176254,0.513748 -4.562866,2.630341 -9,10c-1.153381,1.915649 -2.493454,3.878571 -3,7c-0.160187,0.987091 -0.707108,2.292908 0,3c0.707108,0.707092 3.173096,0.147278 4,-1c2.614899,-3.627991 7.209564,-12.943497 9,-20c2.26741,-8.936371 3.826904,-9.852737 3,-11c-1.307449,-1.813995 -2.735779,3.235413 -9,10c-3.843552,4.150558 -9.513,11.593994 -11,14c-1.662506,2.690002 -1,4 -1,5c0,2 0.878555,4.493469 4,5c3.948349,0.640717 7.880524,-0.957825 10,-7c0.662018,-1.887268 2.121323,-4.878693 0,-7c-0.707108,-0.707108 -2,0 -5,0c-2,0 -3.79393,2.087433 -6,7c-0.916016,2.039825 -2,6 -2,7c0,1 -0.176254,2.486267 2,3c0.973251,0.229767 2.458801,0.306549 3,-1c1.148056,-2.771637 1.414215,-4.585785 0,-6c-0.707108,-0.707092 -2,0 -3,2c-1,2 -2,5 -2,6c0,1 0,2 1,2c1,0 3.173096,0.147278 4,-1c1.307449,-1.813995 1,-3 1,-4c0,-1 -1.292892,-1.707092 -2,-1c-0.707108,0.707092 -0.707108,2.292908 0,3c0.707108,0.707092 2.432678,-4.054138 3,-7c1.018372,-5.287994 2,-8 2,-10c0,-4 0,-6 -3,-6c-1,0 -3,0 -5,2c-2,2 -3,4 -5,8c-1,2 -3,6 -1,6c1,0 0,-4 0,-6c0,-3 0.459503,-7.053497 0,-9c-0.513748,-2.176254 -1.097885,-5.824432 -3,-7c-0.850647,-0.525726 -1,-1 -2,-2c-1,-1 -0.693436,-2.458801 -2,-3c-0.923874,-0.38269 -1,1 -1,2c0,1 -0.707108,3.292892 0,4c0.707108,0.707108 1,-1 1,-2c0,-1 -0.292892,-0.707108 -1,0c-0.707108,0.707108 -2,2 -1,2c2,0 0,-3 0,-4c0,-1 0.306564,-3.458801 -1,-4c-0.923874,-0.38269 -2,0 -2,1c0,1 0,3 0,4c0,1 2,1 4,1c1,0 1.458801,-0.693436 2,-2c0.38269,-0.923874 0,-3 -1,-3c-1,0 -2.292892,-0.707108 -3,0c-1.414215,1.414215 0,3 0,4c0,1 -0.707108,3.292892 0,4c0.707108,0.707108 2.076126,0.38269 3,0c1.306564,-0.541199 1,-2 1,-3c0,-1 0,-3 -1,-3c-1,0 -3.026749,-0.229752 -4,0c-2.176254,0.513748 -2,3 -2,4c0,1 1,2 3,2c3,0 5.418854,0.581146 7,-1c1.581146,-1.581146 2,-3 2,-6c0,-2 1.148056,-4.228363 0,-7c-0.541199,-1.306564 -2,-1 -3,-1c-1,0 -2.076126,-0.38269 -3,0c-1.306564,0.541199 -2,4 -2,5c0,2 -0.525726,4.149353 0,5c1.175568,1.902115 6,2 10,2c1,0 1,-1 1,-4c0,-2 0.581146,-7.418854 -1,-9c-1.581146,-1.581146 -5,-1 -6,-1c-1,0 -3.274307,-0.115036 -4,2c-1.654816,4.823029 -1.24437,9.014984 -1,11c0.503769,4.092209 3,6 8,6c2,0 5.692551,-0.186005 7,-2c3.307617,-4.589081 5.207397,-7.953796 6,-12c1.359299,-6.939194 3.82843,-10.17157 1,-13c-1.414215,-1.414215 -3.229355,-0.668015 -7,1c-3.297333,1.458633 -5.519302,4.658783 -8,9c-6.449799,11.287155 -7.496231,17.907791 -8,22c-0.733093,5.955048 2,10 6,12c2,1 5.076126,2.38269 6,2c1.306564,-0.541199 2.496231,-2.907776 3,-7c0.366547,-2.977509 0.210144,-10.07843 -1,-13c-0.855713,-2.065857 -4,-3 -5,-3c-3,0 -5.585785,-1.414215 -7,0c-0.707108,0.707108 -0.61731,1.076126 -1,2c-0.541199,1.306564 -2.292892,1.292892 -3,2c-0.707108,0.707108 -0.458801,1.693436 -1,3c-0.38269,0.923874 -0.292892,1.292892 -1,2c-0.707108,0.707108 -0.292892,1.292892 -1,2c-0.707108,0.707108 -1,1 -1,2c0,1 0.707108,2.292908 0,3c-0.707108,0.707092 -2,0 -2,1c0,1 -1,1 -1,2l0,-1l-1,0" id="svg_11" stroke-linecap="null" stroke-linejoin="null" stroke-dasharray="null" stroke-width="5" stroke="#ffffff" fill="none"/>
  <path d="m188,264c0,0 1.292892,0.292908 2,1c0.707108,0.707092 2,1 3,1c1,0 2,0 3,0c1,0 1.693436,0.458801 3,1c0.923874,0.38269 1.61731,0.076111 2,1c0.541199,1.306549 1,2 1,3c0,1 0,3 0,4c0,1 0,0 0,-1c0,-1 0,0 1,0c1,0 0.707108,-0.292908 0,-1c-1.414215,-1.414215 -1,-2 -2,-2c-1,0 -1,1 -1,2c0,1 2.292892,1.707092 3,1c0.707108,-0.707092 0.306564,-3.458801 -1,-4c-0.923874,-0.38269 0,0 2,0c3,0 11.055588,0.743469 16,0c13.450256,-2.022491 18.096603,-5.533752 24,-7c3.069031,-0.762268 9,1 9,-1c0,-1 -3.310013,0.662506 -6,-1c-1.203003,-0.7435 -4.852737,-3.173096 -6,-4c-1.813995,-1.307449 -3.076126,-1.38269 -4,-1c-1.306564,0.541199 -2,3 -2,4c0,1 0,3 1,2c1,-1 2.692551,-4.186005 4,-6c2.480713,-3.441803 3,-4 3,-5c0,-1 0,1 -1,3c-1,2 -1,4 -1,5c0,1 1.012909,1.160187 2,1c3.121445,-0.506531 4.206802,-1.812653 6,-4c4.571762,-5.576645 4,-7 4,-9c0,-1 -1,-2 -2,-2c-1,0 -3,0 -4,0c-1,0 -3.418854,-0.581146 -5,1c-1.581146,1.581146 -6.07193,7.953278 -8,11c-3.118103,4.927216 -5,6 -5,7c0,1 0.026749,1.770233 1,2c2.176254,0.513733 4,2 8,2c1,0 4,-2 6,-3l0,-1" id="svg_12" stroke-linecap="null" stroke-linejoin="null" stroke-dasharray="null" stroke-width="5" stroke="#ffffff" fill="none"/>
  <path d="m245,264c0,0 -1,0 -2,0c-1,0 -2.014984,-0.244354 -4,0c-4.092209,0.503784 -5.907791,1.496216 -10,2c-1.985016,0.244354 -4.770248,-0.973236 -5,0c-0.513748,2.176239 3,1 6,1c3,0 7,1 17,1c5,0 10.946716,0.498749 18,1c0.997498,0.070892 2,0 3,0c1,0 2,0 3,1c1,1 1.525726,1.850647 1,1c-1.175568,-1.9021 -2.823761,-1.486267 -5,-2c-2.919739,-0.68927 -5.03067,-0.912323 -8,-2c-5.056595,-1.852264 -8.611038,-2.92807 -11,-5c-3.378494,-2.930145 -2,-5 -2,-7l0,-1l0,-1" id="svg_13" stroke-linecap="null" stroke-linejoin="null" stroke-dasharray="null" stroke-width="5" stroke="#ffffff" fill="none"/>
  <path d="m169,220c0,0 0,1 0,2c0,1 0.292892,1.292892 1,2c0.707108,0.707108 0.292892,1.292892 1,2c0.707108,0.707108 1.292892,0.292892 2,1c0.707108,0.707108 1,1 1,2c0,1 0,2 1,2l1,0l0,1" id="svg_14" stroke-linecap="null" stroke-linejoin="null" stroke-dasharray="null" stroke-width="5" stroke="#ffffff" fill="none"/>
  <path d="m171,227c0,0 0.292892,0.292892 1,1c0.707108,0.707108 1.292892,0.292892 2,1c0.707108,0.707108 0,2 0,3l0,1l1,0" id="svg_15" stroke-linecap="null" stroke-linejoin="null" stroke-dasharray="null" stroke-width="5" stroke="#ffffff" fill="none"/>
  <path d="m176,239c0,0 0,1 0,2l1,0l0,1" id="svg_16" stroke-linecap="null" stroke-linejoin="null" stroke-dasharray="null" stroke-width="5" stroke="#ffffff" fill="none"/>
  <polyline id="svg_17" points="179,261 179,261 " stroke-linecap="round" stroke-linejoin="null" stroke-dasharray="null" stroke-width="5" stroke="#ffffff" fill="none"/>
  <polyline id="svg_18" points="176,243 176,243 " stroke-linecap="round" stroke-linejoin="null" stroke-dasharray="null" stroke-width="5" stroke="#ffffff" fill="none"/>
  <path d="m297,303c1,0 2,0 1,0l-1,0l-1,0l-1,0" id="svg_19" stroke-linecap="null" stroke-linejoin="null" stroke-dasharray="null" stroke-width="5" stroke="#000000" fill="none"/>
 </g>
</svg>